<?xml version="1.0" encoding="UTF-8" standalone="no"?>
<svg
   xmlns:dc="http://purl.org/dc/elements/1.1/"
   xmlns:cc="http://creativecommons.org/ns#"
   xmlns:rdf="http://www.w3.org/1999/02/22-rdf-syntax-ns#"
   xmlns:svg="http://www.w3.org/2000/svg"
   xmlns="http://www.w3.org/2000/svg"
   xmlns:sodipodi="http://sodipodi.sourceforge.net/DTD/sodipodi-0.dtd"
   xmlns:inkscape="http://www.inkscape.org/namespaces/inkscape"
   id="Layer_1"
   data-name="Layer 1"
   viewBox="0 0 768.99998 577.00002"
   version="1.1"
   sodipodi:docname="tesztq.svg"
   inkscape:version="0.92.1 r15371"
   width="769"
   height="577">
  <metadata
     id="metadata20">
    <rdf:RDF>
      <cc:Work
         rdf:about="">
        <dc:format>image/svg+xml</dc:format>
        <dc:type
           rdf:resource="http://purl.org/dc/dcmitype/StillImage" />
        <dc:title>bch redesign</dc:title>
      </cc:Work>
    </rdf:RDF>
  </metadata>
  <sodipodi:namedview
     pagecolor="#eeeeee"
     bordercolor="#666666"
     borderopacity="1"
     objecttolerance="10"
     gridtolerance="10"
     guidetolerance="10"
     inkscape:pageopacity="1"
     inkscape:pageshadow="2"
     inkscape:window-width="1360"
     inkscape:window-height="736"
     id="namedview18"
     showgrid="false"
     inkscape:zoom="0.81778335"
     inkscape:cx="332.11912"
     inkscape:cy="304.64925"
     inkscape:window-x="0"
     inkscape:window-y="0"
     inkscape:window-maximized="0"
     inkscape:current-layer="Layer_1" />
  <defs
     id="defs11">
    <style
       id="style2">.cls-1{fill:url(#Foliage_2);}</style>
    <linearGradient
       id="Foliage_2"
       x1="5.96"
       y1="288.57999"
       x2="628.34003"
       y2="288.57999"
       gradientUnits="userSpaceOnUse">
      <stop
         offset="0"
         stop-color="#54ae6f"
         id="stop4" />
      <stop
         offset="0.49"
         stop-color="#00aa4f"
         id="stop6" />
      <stop
         offset="1"
         stop-color="#007736"
         id="stop8" />
    </linearGradient>
  </defs>
  <title
     id="title13">bch redesign</title>
  <rect
     style="fill:#eeeeee;fill-opacity:1"
     id="rect4491"
     width="781.38055"
     height="589.39813"
     x="-4.8912711"
     y="-8.7297049" />
  <path
     style="fill:#d46700;fill-opacity:0.78431373"
     d="m 300.08055,525.77029 c -200.0537,34.15314 -100.02685,17.07657 0,0 z"
     id="path4494"
     inkscape:connector-curvature="0"
     sodipodi:nodetypes="cc" />
  <path
     style="fill:#dddddd;fill-opacity:0.99145298"
     d="m 568.61868,298.94912 c -5.31643,-20.08152 -13.73412,-38.06064 -29.91313,-50.27629 -14.06229,-10.62073 -30.12645,-14.00994 -46.71569,-15.44175 -1.47678,-0.12687 -3.70837,0.77934 -4.29909,-1.21431 -0.45944,-1.52243 1.52601,-2.57363 2.54336,-3.62483 13.29209,-14.27601 20.92108,-33.78802 21.2165,-54.26359 -0.40239,-13.7093 -3.38069,-27.17651 -8.74586,-39.54682 -11.48612,-27.56677 -30.29054,-44.150344 -57.90645,-48.173897 -19.29668,-2.827362 -38.46208,-0.92433 -57.6439,1.033074 -7.44957,0.761213 -7.43316,0.797461 -9.35298,-7.249645 -5.33285,-22.129542 -9.84525,-44.530946 -15.5719,-66.53362 -1.03375,-3.9329322 -2.36286,-4.7666414 -5.87433,-3.7335669 -11.86352,3.6248229 -23.79267,6.8690389 -35.72183,10.1132549 -2.77307,0.761213 -3.59351,2.102397 -2.85512,5.201621 1.91982,8.06523 3.5607,16.311702 5.46411,24.304435 3.3802,14.499291 7.05576,28.744844 9.20531,43.497872 0.3774,2.483004 1.64087,5.437234 -2.29723,6.597178 -9.07403,2.446754 -18.04961,5.092884 -27.10724,7.811504 -2.80589,0.83371 -3.67555,-0.54373 -4.15141,-3.24423 -0.78762,-4.494778 -1.64087,-8.95331 -2.70744,-13.411842 -4.20064,-18.728244 -8.4505,-37.456506 -12.74959,-56.184751 -0.41022,-1.812411 -0.26254,-4.367911 -3.49506,-3.425457 -12.75506,3.745656 -25.53747,7.340266 -38.34723,10.783847 -3.13407,0.833709 -3.41302,2.319887 -2.65822,5.545979 5.49693,23.434478 10.73132,46.959577 16.21184,70.412184 0.85325,3.62483 0.42663,5.1835 -3.15048,5.99909 -7.99106,1.81241 -15.88366,4.04167 -23.79267,6.21657 -18.97945,5.21974 -37.94796,10.49386 -56.90552,15.82235 -1.73932,0.48935 -4.39754,0.19936 -3.42942,4.09605 3.67556,14.6624 7.30189,29.34294 10.58364,44.11409 1.09938,4.94788 2.92075,5.69097 7.08857,4.24104 9.32017,-3.24421 18.49265,-7.05028 28.23944,-8.6452 16.24466,-2.64612 24.7772,3.35296 28.8958,20.86085 3.74119,15.84048 7.10498,31.77157 10.78054,47.63017 10.18983,44.05972 19.16541,88.48192 30.2249,132.30603 2.65822,10.56636 5.69383,21.00585 6.72758,31.98906 0.98453,10.43949 -1.82137,16.00359 -10.3211,20.49837 -3.52989,1.71184 -7.23968,2.92957 -11.04308,3.62483 -6.56349,1.41368 -13.25826,1.81241 -19.69049,4.24104 -2.31363,0.88808 -3.72478,2.06615 -3.46224,5.27412 1.43302,17.43539 2.74026,34.88891 3.92169,52.36056 0.29536,4.38603 1.80496,4.82101 5.31643,3.62482 26.45089,-8.6452 53.37763,-15.20613 80.25515,-21.89393 2.70744,-0.67059 3.7576,0 4.29909,2.86361 1.06657,5.60035 2.36286,11.14633 3.5607,16.72856 4.03655,18.77658 8.00746,37.58941 13.12699,56.07601 0.49226,1.81241 0.5579,4.22291 3.28175,3.20796 12.53628,-4.69414 25.69609,-6.50655 38.39645,-10.45761 2.31363,-0.72496 3.11766,-1.61305 2.4449,-4.44041 -2.23158,-9.49703 -4.135,-19.08469 -6.30095,-28.59985 -3.28175,-14.49929 -6.9409,-28.78109 -9.59912,-43.38913 -0.41021,-2.17489 -1.41115,-4.42228 1.90342,-5.25599 7.08857,-1.81241 14.06229,-4.04168 21.13446,-5.78159 10.3375,-2.51925 10.37032,-2.39238 12.99572,8.80832 5.00466,21.38645 10.02574,42.77291 14.91554,64.19561 0.65635,2.86361 1.54243,3.62482 4.26628,2.88173 11.94556,-3.20797 23.94035,-6.12595 35.78746,-9.82327 4.46318,-1.41368 5.31643,-3.15359 4.06937,-8.13772 -5.56257,-22.23829 -11.28922,-44.44033 -15.03041,-67.16797 -1.09938,-6.66967 -1.16502,-6.65155 4.6929,-8.97143 13.38953,-5.31037 26.74625,-10.72948 39.64352,-17.41728 18.04961,-9.33392 34.88498,-20.51649 46.71568,-38.8581 19.49359,-30.08602 22.16821,-63.07191 12.93009,-97.79771 z"
     id="path4492"
     inkscape:connector-curvature="0"
     sodipodi:nodetypes="ccccccccccccccccccccccccccccccccccccccccccccccccccccccccccccccc" />
  <path
     style="fill:#eeeeee;fill-opacity:1"
     d="m 449.22868,296.12175 c -6.35742,-1.63377 -12.90032,-2.20801 -19.41154,-1.70367 -3.41301,0 -6.84244,-0.30811 -10.22264,0 -23.98958,2.51925 -47.04386,9.95014 -70.16378,16.92792 -2.0675,0.63435 -3.01921,1.39556 -2.24799,4.0598 8.76226,30.811 14.30842,62.41945 21.72517,93.55668 2.19877,9.20705 2.21518,9.24329 10.3211,6.95966 20.36324,-5.72722 41.02185,-10.27638 60.41698,-19.64654 12.9629,-6.25282 25.41714,-13.42997 34.14659,-26.47933 19.64126,-29.27045 7.59725,-65.4643 -24.51466,-73.67452 z"
     id="path4490"
     inkscape:connector-curvature="0"
     sodipodi:nodetypes="ccccccccccc" />
  <path
     style="fill:#eeeeee;fill-opacity:1"
     d="m 418.24898,223.80653 c 17.44249,-19.51967 14.29201,-49.26134 -6.64554,-64.24998 -10.02574,-7.24964 -21.18368,-8.75394 -32.81748,-8.39146 -21.33136,0.9062 -41.62898,7.86586 -61.97581,14.31805 -2.52695,0.79746 -2.14955,2.60987 -1.73933,4.62165 6.16969,29.79604 12.95196,59.39875 20.34684,88.80815 0.73839,2.97236 1.87059,3.76982 4.6929,3.1536 11.20302,-2.36596 22.23238,-5.64327 32.99798,-9.80515 16.65487,-6.59718 32.57135,-14.31805 45.18967,-28.45486 z"
     id="path15"
     inkscape:connector-curvature="0"
     sodipodi:nodetypes="cccccccccc" />
</svg>
