<svg id="Layer_1" data-name="Layer 1" xmlns="http://www.w3.org/2000/svg" viewBox="0 0 258 258"><defs><style>.cls-1,.cls-3{fill:#3f51b5;}.cls-2{fill:#fff;}.cls-3{stroke:#fff;stroke-miterlimit:10;stroke-width:1.6px;}</style></defs><title>gatewaycash</title><ellipse class="cls-1" cx="128.98" cy="130.95" rx="113.44" ry="115.47"/><path class="cls-2" d="M198.87,196.37c.24-18.09.26-34.15.27-47.77V132.53a7.27,7.27,0,0,0-7.36-7.16H137.29a14.2,14.2,0,0,0-9.75,3.89,3.19,3.19,0,0,0-1.12,1,2.77,2.77,0,0,0-.26.25c-.06.05-.1.11-.16.15l-.08.13a3.34,3.34,0,0,0-.41.56c0,.05-.09.11-.14.15a2.83,2.83,0,0,1-.27.49,2.77,2.77,0,0,1-.31.76c0,.07,0,.14,0,.21a3.66,3.66,0,0,0-.43,1.08,2.2,2.2,0,0,1-.14.24v.12c-.07.21-.14.43-.21.66a11.37,11.37,0,0,0-.43,1.87,12.76,12.76,0,0,0,3.24,10.48,14.82,14.82,0,0,0,11.06,4.9h31.76v6.55a6,6,0,0,0,0,4.34v1.26c0,6.2-.08,12-.16,17.62a65.19,65.19,0,0,1-20.59,9l-3,.53a4.38,4.38,0,0,0-1.3.44l-.3,0-2.24.31a69.28,69.28,0,0,1-9.48.66A67.64,67.64,0,0,1,114,190.54c-20.1-5.71-35.56-19.8-42.41-38.64A59.26,59.26,0,0,1,68,132.12V130.4a6,6,0,0,0,.28-2.78,13.29,13.29,0,0,0,0-1.56l.09-.86A62.45,62.45,0,0,1,76,101.35a63.71,63.71,0,0,1,36.87-30l.23-.07.57.09h0a2.79,2.79,0,0,1,1.54-.43h.11a3.19,3.19,0,0,1,.61-.35,2.74,2.74,0,0,1,1.72-.55h.06a2.71,2.71,0,0,1,1.77-.6,3.13,3.13,0,0,1,.74.09A66,66,0,0,1,173,82.65v8.06h26.11V60.24l-.68-1.33a6.88,6.88,0,0,0-1.32-1.76l-.26-.26-.67-.52a6.48,6.48,0,0,0-.54-.38c-2.33-1.81-4.82-3.54-7.4-5.15l-.18-.12-.36-.23c-1.69-1-3.43-2-5.18-3l-6-3.17a2.85,2.85,0,0,1-2.12-.88A3,3,0,0,1,173,43h0a101.7,101.7,0,0,0-38.26-7.53,100,100,0,0,0-23,2.67A97.74,97.74,0,0,0,56.2,74.63L55,76.21a5.51,5.51,0,0,0-.55.42,2.9,2.9,0,0,1-1.11,1.56,3,3,0,0,1-.47.77,3,3,0,0,1-1,1.67,5.12,5.12,0,0,0-.16.5L51,82.21c-.63,1-1.36,2.23-2.06,3.49a94.59,94.59,0,0,0-12,49.92l.06,1.62c0,.06,0,.13-.07.2a3.53,3.53,0,0,1,.16,1.16,3.48,3.48,0,0,1-.16,2.94,6.1,6.1,0,0,0,.53,1.09l.27,1.9A90.56,90.56,0,0,0,42.29,163a92.31,92.31,0,0,0,23.24,35.66,97.92,97.92,0,0,0,37.15,22.14l1.22.4c.08.07.16.12.24.19a2.81,2.81,0,0,1,1.09.29h.2a2.68,2.68,0,0,1,1.76.6h.07a2.79,2.79,0,0,1,1.54.43l.23,0,1.24.31a103.57,103.57,0,0,0,25.1,3.13,100.61,100.61,0,0,0,57.49-17.82l1.95-1.35h.73l1-1.35,1.33-1.33a4.13,4.13,0,0,0,1.17-3.53l-.22-1.43v-.09c0-.05,0-.11,0-.17Z"/><path class="cls-2" d="M54.85,161.44a3.83,3.83,0,0,1,2.14-.61c-.38-.93-.77-1.86-1.12-2.81a79,79,0,0,1,5.67-65.29A82.86,82.86,0,0,1,99.84,57.6a3.89,3.89,0,0,1-.84-2A85,85,0,0,0,59.6,91.68a81,81,0,0,0-5.82,67.06C54.11,159.66,54.49,160.54,54.85,161.44Z"/><path class="cls-2" d="M187.84,146.09c0,16.37-.06,31.56-.3,49.5v.32a2.29,2.29,0,0,1-.33.23,87.7,87.7,0,0,1-52.61,17.33,90,90,0,0,1-24.59-3.4c-22.56-6.4-40.69-20.79-51.23-40.25-.27-.49-.53-1-.78-1.47a3.6,3.6,0,0,0,1.88-1.13q.48.93,1,1.83c10.31,18.81,27.93,32.71,49.82,38.93,25.78,7.31,53.59,2.38,74.66-13.15.24-17.62.27-32.6.27-48.74Z"/><path class="cls-2" d="M190.07,71v3c-20.38-19.86-47.35-28.1-75.43-21.48-2.45.58-4.86,1.28-7.22,2.06h0c-.3.12-.57.2-.84.29a4.22,4.22,0,0,0-.66-2.06c.27-.09.57-.2.84-.26,2.42-.84,4.86-1.54,7.37-2.15C142.18,43.81,169.18,51.67,190.07,71Z"/><path class="cls-2" d="M192.88,63.4v1.31L192,64c-.63-.52-1.28-1-1.94-1.51a85.9,85.9,0,0,0-10.41-6.79A91.9,91.9,0,0,0,114,46.56,88.69,88.69,0,0,0,63.13,80.21a4,4,0,0,0-1.55-1.89,91.28,91.28,0,0,1,51.89-34.05A94.31,94.31,0,0,1,179.63,53a85.47,85.47,0,0,1,12.56,8.16s.09,0,.12.06l.45.35a.63.63,0,0,1,.12.15Z"/><path class="cls-2" d="M192.88,146.09c0,16.57,0,32-.26,49.62,0,.19,0,.38,0,.58a4.35,4.35,0,0,0-1.08-.15,4.76,4.76,0,0,0-1.34.23v-.73c.26-17.61.29-33,.29-49.56Z"/><path class="cls-2" d="M105.68,212.61C79.74,204,59.86,185.06,50.79,160.11a82.09,82.09,0,0,1-4.13-16.81,4.43,4.43,0,0,1-2,.44c-.14,0-.25,0-.39,0a84.49,84.49,0,0,0,4.24,17.19c9.29,25.65,29.72,45.09,56.4,54A4,4,0,0,1,105.68,212.61Z"/><path class="cls-2" d="M187.95,201.28a93.17,93.17,0,0,1-75.46,13.31,4.16,4.16,0,0,1-.44,2.29,97,97,0,0,0,23.5,2.93,94.68,94.68,0,0,0,53.77-16.66A3.57,3.57,0,0,1,187.95,201.28Z"/><path class="cls-2" d="M44.69,135.24a4.69,4.69,0,0,1,1.28.19A86.4,86.4,0,0,1,56.9,89.81c.7-1.25,1.43-2.47,2.18-3.67a4.22,4.22,0,0,1-2.33-.72c-.66,1.08-1.32,2.16-1.94,3.27a88.54,88.54,0,0,0-11.24,46.69A4.8,4.8,0,0,1,44.69,135.24Z"/><path class="cls-2" d="M84.39,189.27a73,73,0,0,1-18.82-94,77.18,77.18,0,0,1,49.56-37.51A79.41,79.41,0,0,1,147.92,57a4.55,4.55,0,0,1,.52-2,81.53,81.53,0,0,0-33.82.69A79.22,79.22,0,0,0,63.75,94.28a75,75,0,0,0,19.83,97A3.91,3.91,0,0,1,84.39,189.27Z"/><path class="cls-2" d="M130.87,135.46l-.09.2v-.2Z"/><path class="cls-2" d="M183.48,146.09c0,14.89-.06,28.8-.3,45.2v.29l-.27.23A82,82,0,0,1,133.77,208a84.79,84.79,0,0,1-22.95-3.17,82.52,82.52,0,0,1-20-8.66c-.55-.33-1.09-.66-1.63-1a3.59,3.59,0,0,0,1.49-1.48l1.29.79a79.8,79.8,0,0,0,19.48,8.38,80.75,80.75,0,0,0,69.71-12.25c.24-16.11.27-29.81.27-44.51Z"/><path class="cls-2" d="M156.31,57a4.67,4.67,0,0,1-.32,2,78,78,0,0,1,32.8,19.26l1.5-1.41A80.21,80.21,0,0,0,156.31,57Z"/><path class="cls-2" d="M62,124.54l.21,0a68.9,68.9,0,0,1,8.33-26.19,70.49,70.49,0,0,1,40.57-32.94,4.56,4.56,0,0,1-.46-1.81A72.33,72.33,0,0,0,68.86,97.48a70.56,70.56,0,0,0-8.62,27.43A4,4,0,0,1,62,124.54Z"/><path class="cls-2" d="M130.87,135.46l-.09.2v-.2Z"/><path class="cls-2" d="M178.11,146.09c0,3.35,0,6.65,0,10,0,.36,0,.73,0,1.1a4,4,0,0,0-1.22-.2,2.35,2.35,0,0,0-.66.09V146.09Z"/><path class="cls-2" d="M143,198.64a74.59,74.59,0,0,1-30.65-2.09C90.24,190.27,73.23,174.76,65.68,154a65.33,65.33,0,0,1-3.88-21.82,3.83,3.83,0,0,1-1.89-.54,67.22,67.22,0,0,0,4,23c7.73,21.34,25.19,37.27,47.92,43.72a75.62,75.62,0,0,0,31.75,2.08A4,4,0,0,1,143,198.64Z"/><path class="cls-2" d="M176.86,164.6a4.43,4.43,0,0,1-.7-.07c0,6.66-.1,13.46-.2,20.82a71.83,71.83,0,0,1-25.54,11.88,4.27,4.27,0,0,1,0,1.9,73.74,73.74,0,0,0,27.12-12.67,1.76,1.76,0,0,0,.25-.2V186c.12-7.64.18-14.69.22-21.57A4.18,4.18,0,0,1,176.86,164.6Z"/><path class="cls-2" d="M118.68,61.65a4.65,4.65,0,0,1,.35,1.83,72.4,72.4,0,0,1,63.92,19.36l1.37-1.29A74.42,74.42,0,0,0,118.68,61.65Z"/><ellipse class="cls-2" cx="118.68" cy="62.69" rx="2.35" ry="2.29"/><ellipse class="cls-2" cx="99.56" cy="56.79" rx="2.35" ry="2.29"/><ellipse class="cls-2" cx="58.3" cy="85.14" rx="2.35" ry="2.29"/><ellipse class="cls-2" cx="45" cy="135.78" rx="2.35" ry="2.29"/><ellipse class="cls-2" cx="155.91" cy="58.08" rx="2.35" ry="2.29"/><ellipse class="cls-2" cx="110.35" cy="64.98" rx="1.66" ry="1.62"/><ellipse class="cls-2" cx="188.41" cy="202.02" rx="2.35" ry="2.29"/><ellipse class="cls-2" cx="177.12" cy="158.14" rx="2.35" ry="2.29"/><ellipse class="cls-2" cx="89.61" cy="194.18" rx="2.35" ry="2.29"/><ellipse class="cls-2" cx="105.68" cy="213.47" rx="2.35" ry="2.29"/><ellipse class="cls-2" cx="150.42" cy="198.01" rx="2.35" ry="2.29"/><ellipse class="cls-2" cx="59.07" cy="167.56" rx="2.35" ry="2.29"/><ellipse class="cls-2" cx="61.43" cy="125.65" rx="2.35" ry="2.29"/><ellipse class="cls-2" cx="191.39" cy="196.79" rx="1.66" ry="1.62"/><ellipse class="cls-2" cx="84.54" cy="190.66" rx="1.66" ry="1.62"/><ellipse class="cls-2" cx="177.12" cy="163.35" rx="1.66" ry="1.62"/><ellipse class="cls-2" cx="143.57" cy="199.73" rx="1.66" ry="1.62"/><ellipse class="cls-2" cx="112.05" cy="215.82" rx="1.66" ry="1.62"/><ellipse class="cls-2" cx="60.74" cy="131.67" rx="1.66" ry="1.62"/><ellipse class="cls-2" cx="56.33" cy="162.05" rx="1.66" ry="1.62"/><ellipse class="cls-2" cx="148.44" cy="56.28" rx="1.66" ry="1.62"/><ellipse class="cls-2" cx="105.88" cy="53.95" rx="1.66" ry="1.62"/><ellipse class="cls-2" cx="62.07" cy="79.43" rx="1.66" ry="1.62"/><ellipse class="cls-2" cx="45.3" cy="142.85" rx="1.66" ry="1.62"/><path class="cls-2" d="M192.88,132.11v14H176.2v-.48a.49.49,0,0,1-.5.48H138c-4.59,0-8.57-3.81-7.93-8.24a5.1,5.1,0,0,1,.23-1,5.74,5.74,0,0,1,.48-1.22l.09-.2a3.49,3.49,0,0,1,.27-.4,7.47,7.47,0,0,1,1-1.31,7.59,7.59,0,0,1,5.28-2.12h54.92A.49.49,0,0,1,192.88,132.11Z"/><path class="cls-2" d="M192.88,84.45H179.63V53a85.47,85.47,0,0,1,12.56,8.16s.09,0,.12.06l.45.35a.63.63,0,0,1,.12.15Z"/><ellipse class="cls-2" cx="182.88" cy="81.83" rx="1.66" ry="1.62"/><ellipse class="cls-2" cx="186.25" cy="74.03" rx="1.26" ry="1.22"/><ellipse class="cls-2" cx="182.88" cy="64.98" rx="1.51" ry="1.47"/><path class="cls-3" d="M84.54,192.69a2.08,2.08,0,0,1-2.08-1.8A75.36,75.36,0,0,1,63.37,94.08a79.62,79.62,0,0,1,51.15-38.72,80.8,80.8,0,0,1,18.53-2.14,83.66,83.66,0,0,1,14.42,1.26,2.12,2.12,0,0,1,1-.24,2,2,0,1,1-1.85,3,80.61,80.61,0,0,0-13.51-1.15,77.85,77.85,0,0,0-17.86,2.07A76.79,76.79,0,0,0,65.94,95.46a72.53,72.53,0,0,0,18.33,93.18l.26,0a2,2,0,1,1,0,4.07Z"/><path class="cls-3" d="M82.87,190.68A1.66,1.66,0,1,0,84.54,189a1.7,1.7,0,0,0-.38,0,72.94,72.94,0,0,1-18.6-93.83,77.18,77.18,0,0,1,49.56-37.51,79.32,79.32,0,0,1,31.77-.88,1.66,1.66,0,0,0,1.55,1,1.62,1.62,0,1,0,0-3.24,1.69,1.69,0,0,0-.89.26,81.46,81.46,0,0,0-32.92.85A79.22,79.22,0,0,0,63.75,94.28a75,75,0,0,0,19.12,96.4Z"/><path class="cls-3" d="M61.43,128.35a2.75,2.75,0,0,1-2.78-2.71A2.67,2.67,0,0,1,60,123.33a70.67,70.67,0,0,1,8.5-26.06,72.47,72.47,0,0,1,40.15-33.45,2.11,2.11,0,0,1,1.72-.89,2,2,0,1,1,0,4.07,2.12,2.12,0,0,1-1.32-.46,69.88,69.88,0,0,0-38.14,32,68.22,68.22,0,0,0-8.12,24.71,2.68,2.68,0,0,1,1.44,2.37A2.75,2.75,0,0,1,61.43,128.35Z"/><path class="cls-3" d="M109.13,66.07a1.68,1.68,0,0,0,1.22.52,1.62,1.62,0,1,0,0-3.24,1.67,1.67,0,0,0-1.44.82,72.34,72.34,0,0,0-40.05,33.3,70.59,70.59,0,0,0-8.47,26.12,2.28,2.28,0,0,0-1.31,2.05,2.36,2.36,0,0,0,4.71,0,2.29,2.29,0,0,0-1.48-2.12,68.92,68.92,0,0,1,8.2-25.15A70.5,70.5,0,0,1,109.13,66.07Z"/><path class="cls-3" d="M143.57,201.77A2.11,2.11,0,0,1,142,201a75.54,75.54,0,0,1-9.24.59,76.84,76.84,0,0,1-21-2.91c-22.86-6.49-40.43-22.53-48.2-44a67.39,67.39,0,0,1-4-21.44,2,2,0,0,1-.86-1.63,2.09,2.09,0,0,1,4.19,0,2,2,0,0,1-.59,1.41,64.75,64.75,0,0,0,3.84,20.78c7.5,20.64,24.41,36.06,46.39,42.3a73.73,73.73,0,0,0,20.13,2.79,75.13,75.13,0,0,0,9.45-.6,2.1,2.1,0,0,1,1.52-.65,2,2,0,1,1,0,4.07Z"/><path class="cls-3" d="M132.74,201.22a75,75,0,0,0,9.44-.62,1.67,1.67,0,0,0,1.4.74,1.62,1.62,0,1,0,0-3.24,1.67,1.67,0,0,0-1.3.62,74.56,74.56,0,0,1-29.92-2.18C90.24,190.27,73.23,174.76,65.68,154a65.26,65.26,0,0,1-3.87-21.09,1.59,1.59,0,0,0,.59-1.23,1.67,1.67,0,0,0-3.33,0,1.61,1.61,0,0,0,.85,1.41,67.08,67.08,0,0,0,4,21.53c7.73,21.34,25.19,37.27,47.92,43.72A76.51,76.51,0,0,0,132.74,201.22Z"/><path class="cls-3" d="M150.42,200.72a2.71,2.71,0,1,1,0-5.42,2.82,2.82,0,0,1,2.11.94,70.92,70.92,0,0,0,23-11.11c.1-6.58.16-13,.2-20.27a2,2,0,0,1-.7-1.52,2.09,2.09,0,0,1,4.19,0,2,2,0,0,1-.73,1.54c0,7.53-.11,14.24-.22,21.11v.44l-.13.12a2.24,2.24,0,0,1-.32.25A73.6,73.6,0,0,1,153,198.9,2.77,2.77,0,0,1,150.42,200.72Z"/><path class="cls-3" d="M152.36,196.72a2.37,2.37,0,0,0-1.94-1,2.29,2.29,0,1,0,2.28,2.83,73.56,73.56,0,0,0,24.88-12.1,1.75,1.75,0,0,0,.25-.2V186c.12-7.54.18-14.5.22-21.31a1.61,1.61,0,0,0,.73-1.34,1.67,1.67,0,0,0-3.33,0,1.6,1.6,0,0,0,.7,1.32c0,6.62-.1,13.38-.2,20.68A71.64,71.64,0,0,1,152.36,196.72Z"/><path class="cls-3" d="M45,138.49a2.75,2.75,0,0,1-2.78-2.71,2.66,2.66,0,0,1,.88-2A89.1,89.1,0,0,1,54.43,88.49c.44-.79.89-1.55,1.32-2.26a2.65,2.65,0,0,1-.24-1.09,2.78,2.78,0,1,1,3,2.7c-.51.85-.91,1.53-1.27,2.18a86.16,86.16,0,0,0-10.94,43.4,2.69,2.69,0,0,1,1.45,2.38A2.75,2.75,0,0,1,45,138.49Z"/><path class="cls-3" d="M47.35,135.78a2.29,2.29,0,0,0-1.44-2.11,86.47,86.47,0,0,1,11-43.86c.45-.81.92-1.6,1.39-2.39h0a2.29,2.29,0,1,0-2.35-2.29,2.23,2.23,0,0,0,.29,1.11c-.49.81-1,1.62-1.43,2.44A88.6,88.6,0,0,0,43.53,134a2.26,2.26,0,0,0-.88,1.79,2.36,2.36,0,0,0,4.71,0Z"/><path class="cls-3" d="M135.55,220.23a97.26,97.26,0,0,1-22.42-2.67,2.1,2.1,0,0,1-1.08.3,2,2,0,1,1,0-4.07,2.11,2.11,0,0,1,1.51.63,94,94,0,0,0,22,2.6h0a91.61,91.61,0,0,0,50.12-14.7,2.58,2.58,0,0,1,0-.29,2.78,2.78,0,1,1,2.78,2.71,2.84,2.84,0,0,1-.59-.06A94.76,94.76,0,0,1,135.55,220.23Z"/><path class="cls-3" d="M188.41,199.73a2.32,2.32,0,0,0-2.35,2.29,2.24,2.24,0,0,0,.06.49,93.25,93.25,0,0,1-72.79,12.28,1.67,1.67,0,0,0-1.28-.59,1.62,1.62,0,1,0,0,3.24,1.68,1.68,0,0,0,1-.33,96.85,96.85,0,0,0,22.51,2.7,94.75,94.75,0,0,0,52.19-15.6,2.41,2.41,0,0,0,.68.1,2.29,2.29,0,1,0,0-4.58Z"/><path class="cls-3" d="M105.68,216.18a2.78,2.78,0,0,1-2.49-1.5A91.71,91.71,0,0,1,69.4,194,86.59,86.59,0,0,1,48.14,161,85,85,0,0,1,44,144.43a2,2,0,0,1-.77-1.58,2.09,2.09,0,0,1,4.19,0,2,2,0,0,1-.24.93,81.77,81.77,0,0,0,4,16.19c8.69,23.9,27.84,42.67,52.58,51.53a2.82,2.82,0,0,1,1.91-.74,2.71,2.71,0,1,1,0,5.42Z"/><path class="cls-3" d="M105.68,211.18a2.38,2.38,0,0,0-1.79.81c-25.06-8.9-44.24-27.51-53.1-51.88a82,82,0,0,1-4.07-16.41,1.57,1.57,0,0,0,.25-.85,1.67,1.67,0,0,0-3.33,0,1.61,1.61,0,0,0,.74,1.35,84.39,84.39,0,0,0,4.16,16.69c9.12,25.19,29,44.38,55,53.46a2.36,2.36,0,0,0,2.18,1.42,2.29,2.29,0,1,0,0-4.58Z"/><path class="cls-3" d="M134.6,213.89a90.15,90.15,0,0,1-24.71-3.41c-22.46-6.37-40.71-20.67-51.39-40.26a2.72,2.72,0,1,1,3.35-2.65,2.65,2.65,0,0,1-.49,1.54c10.33,18.7,27.88,32.36,49.43,38.49a87.07,87.07,0,0,0,23.77,3.3h0a85.66,85.66,0,0,0,50.34-16.26c.24-18.08.26-33.68.26-48.12h-1.26c0,12.09,0,26.85-.3,44.79v.46l-.13.12-.17.15-.09.08,0,0,0,0a82.83,82.83,0,0,1-49.41,16.26,85.06,85.06,0,0,1-23.07-3.18,83,83,0,0,1-19.92-8.58,2.84,2.84,0,0,1-1.17.25,2.71,2.71,0,1,1,2.78-2.71v.06a79.57,79.57,0,0,0,19.15,8.2,81.18,81.18,0,0,0,22.22,3.1h0a79.91,79.91,0,0,0,46.94-15.16c.24-16.51.26-30.73.26-43.88h-2.42c0,3.18,0,6.2,0,9.29a2.7,2.7,0,0,1,1.38,2.34,2.78,2.78,0,0,1-5.57,0,2.69,2.69,0,0,1,1.44-2.37V146.5H138a8.86,8.86,0,0,1-6.52-2.89,7.11,7.11,0,0,1-1.83-5.82,5.49,5.49,0,0,1,.25-1,6.1,6.1,0,0,1,.45-1.19V135h.28a2.35,2.35,0,0,1,.16-.23,7.88,7.88,0,0,1,1.09-1.36,8,8,0,0,1,5.59-2.24h54.92a.91.91,0,0,1,.92.9v14c0,15,0,31.1-.26,49.48a2,2,0,0,1,.43,1.22,2.09,2.09,0,0,1-4.19,0,2,2,0,0,1,.49-1.31c.26-17.94.28-33.42.28-49h-1.8c0,13.26,0,29.44-.3,49.09v.52l-.17.13-.09.07a1.7,1.7,0,0,1-.26.18A88.42,88.42,0,0,1,134.6,213.89Z"/><path class="cls-3" d="M192.63,195.72h0c.23-17.64.26-33,.26-49.62v-14a.49.49,0,0,0-.49-.48H137.47a7.59,7.59,0,0,0-5.28,2.12,7.47,7.47,0,0,0-1,1.31,3.49,3.49,0,0,0-.27.4h-.09v.2a5.74,5.74,0,0,0-.48,1.22,5.1,5.1,0,0,0-.23,1c-.64,4.43,3.34,8.24,7.93,8.24h37.7a.49.49,0,0,0,.5-.48V156a2.29,2.29,0,0,0-1.44,2.11,2.36,2.36,0,0,0,4.71,0,2.29,2.29,0,0,0-1.38-2.09h0c0-3.32,0-6.62,0-10h3.28c0,14.69,0,28.39-.27,44.51a80.75,80.75,0,0,1-69.71,12.25,79.8,79.8,0,0,1-19.48-8.38,2.24,2.24,0,0,0,0-.28,2.36,2.36,0,1,0-2.35,2.29,2.39,2.39,0,0,0,1.19-.32,82.53,82.53,0,0,0,20,8.66A84.79,84.79,0,0,0,133.77,208a82,82,0,0,0,49.15-16.17l.27-.23v-.29c.24-16.4.3-30.31.3-45.2h2.12c0,16.14,0,31.12-.27,48.74-21.07,15.53-48.88,20.46-74.66,13.15-21.89-6.22-39.52-20.12-49.82-38.93h0a2.24,2.24,0,0,0,.57-1.5,2.36,2.36,0,1,0-2.64,2.27c10.54,19.46,28.67,33.84,51.23,40.24a90,90,0,0,0,24.59,3.4,87.7,87.7,0,0,0,52.61-17.33,2.29,2.29,0,0,0,.33-.23v-.32c.24-17.94.3-33.13.3-49.5h2.66c0,16.58,0,31.95-.29,49.56a1.59,1.59,0,0,0-.49,1.15,1.67,1.67,0,0,0,3.33,0A1.58,1.58,0,0,0,192.63,195.72Z"/><path class="cls-3" d="M56.33,164.09a2.07,2.07,0,0,1-2.09-2,2,2,0,0,1,.13-.68l-.19-.48c-.27-.65-.54-1.32-.79-2a81.41,81.41,0,0,1,5.85-67.4A84.84,84.84,0,0,1,96.87,56.11a2.77,2.77,0,1,1,2.69,3.39A2.82,2.82,0,0,1,97.91,59a81.93,81.93,0,0,0-36,34,78.52,78.52,0,0,0-5.64,65c.27.74.57,1.47.86,2.19l.05.13A2,2,0,0,1,58.42,162,2.07,2.07,0,0,1,56.33,164.09Z"/><path class="cls-3" d="M56.33,163.67A1.64,1.64,0,0,0,58,162a1.62,1.62,0,0,0-1.13-1.53c-.34-.83-.68-1.65-1-2.5a79,79,0,0,1,5.67-65.29A82.86,82.86,0,0,1,98,58.47a2.38,2.38,0,0,0,1.59.61,2.29,2.29,0,1,0-2.32-2.69A85,85,0,0,0,59.6,91.68a81,81,0,0,0-5.82,67.06c.32.89.69,1.75,1,2.62a1.57,1.57,0,0,0-.16.68A1.64,1.64,0,0,0,56.33,163.67Z"/><path class="cls-3" d="M179.2,84.87V79.95a72.25,72.25,0,0,0-57.87-16.44,2.78,2.78,0,0,1-2.65,1.88,2.71,2.71,0,1,1,0-5.42,2.83,2.83,0,0,1,2.07.9A75.17,75.17,0,0,1,179.2,76.41v-5.7A78.28,78.28,0,0,0,157.87,60a2.81,2.81,0,0,1-2,.79,2.71,2.71,0,1,1,2.63-3.59,81.58,81.58,0,0,1,20.66,10V65.49a78.35,78.35,0,0,0-45.57-14.78A82.48,82.48,0,0,0,114.74,53c-2.31.55-4.67,1.22-7,2a2.1,2.1,0,0,1-1.83,1,2,2,0,1,1,0-4.07,2.12,2.12,0,0,1,.89.2c2.24-.77,4.6-1.46,7.22-2.1a85.49,85.49,0,0,1,19.58-2.32A81.49,81.49,0,0,1,179.2,61.85V56a91.4,91.4,0,0,0-65.06-9,88.31,88.31,0,0,0-50,32.58,2.09,2.09,0,1,1-2.43-2.12,91.76,91.76,0,0,1,51.64-33.57,93.71,93.71,0,0,1,21.56-2.51,95,95,0,0,1,44.9,11.29,86.46,86.46,0,0,1,12.59,8.17.54.54,0,0,1,.16.09l.46.35,0,0a1,1,0,0,1,.2.25l0,.09V84.87Z"/><path class="cls-3" d="M62.07,81.05a1.64,1.64,0,0,0,1.66-1.62v0A88.66,88.66,0,0,1,114,46.56a91.9,91.9,0,0,1,65.59,9.14v6.94A80.79,80.79,0,0,0,114.1,50.43c-2.5.61-4.95,1.31-7.36,2.15a1.68,1.68,0,0,0-.85-.24,1.62,1.62,0,1,0,0,3.24,1.67,1.67,0,0,0,1.52-1h0c2.36-.78,4.77-1.48,7.22-2.06a78.62,78.62,0,0,1,65,12.74V68a81.24,81.24,0,0,0-21.44-10.48,2.35,2.35,0,1,0-2.28,2.84,2.37,2.37,0,0,0,1.83-.85,78.89,78.89,0,0,1,21.89,11v6.8a74.65,74.65,0,0,0-59.06-16,2.37,2.37,0,0,0-1.89-.93A2.29,2.29,0,1,0,121,63.14a72.57,72.57,0,0,1,58.64,16.62v4.69h13.25V61.72a.63.63,0,0,0-.12-.15l-.45-.35s-.09,0-.12-.06A85.47,85.47,0,0,0,179.63,53a94.31,94.31,0,0,0-66.16-8.74A91.27,91.27,0,0,0,62,77.83a1.62,1.62,0,0,0,.11,3.23Z"/></svg>